<svg xmlns="http://www.w3.org/2000/svg" width="397.351" height="487.405" viewBox="0 0 298.013 365.554"><defs><clipPath id="a"><path d="M0 88h298.012v277.555H0zm0 0"/></clipPath></defs><path d="M219.395 0h2.57c2.047 25.785-7.746 45.066-19.746 59.012-11.676 13.804-27.75 27.27-53.774 25.242-1.726-25.402 8.164-43.262 20.067-57.227C179.566 14.105 199.872 2.59 219.395 0" fill-rule="evenodd" fill="currentColor"/><g clip-path="url(#a)"><path d="M298.012 268.297v.781c-7.305 22.094-17.719 41.074-30.418 58.633-11.598 15.992-25.864 37.46-51.27 37.46-21.87 0-36.437-14.105-58.93-14.507-23.84-.379-36.921 11.84-58.632 14.89h-7.446c-15.992-2.347-28.851-14.968-38.242-26.327C25.402 305.52 3.992 262.016 0 206.375V189.98c1.727-39.808 21.008-72.257 46.793-87.925 13.562-8.328 32.227-15.453 52.992-12.32 8.93 1.421 18.02 4.472 26.028 7.445 7.523 2.988 16.996 8.086 25.921 7.843 6.121-.16 12.16-3.37 18.282-5.558 17.855-6.52 35.414-13.883 58.629-10.434 27.812 4.235 47.578 16.531 59.714 35.656-23.515 14.989-42.093 37.563-38.945 76.047 2.809 35.036 23.195 55.48 48.598 67.563" fill-rule="evenodd" fill="currentColor"/></g></svg>
