<svg xmlns="http://www.w3.org/2000/svg" viewBox="0 0 27.863 27.863"><path d="M13.541 27.858l-.332-.018a13.76 13.76 0 01-8.388-3.372l-.322-.278 9.342-10.267 2.715 2.472-.257.307c-2.174 2.593-2.164 5.425-2.156 7.301.007 1.484-.316 2.853-.51 3.537l-.092.318zm-7.846-3.743a12.909 12.909 0 007.221 2.872c.177-.697.397-1.802.391-2.979-.008-1.924-.018-4.797 2.1-7.528l-1.512-1.376-8.2 9.011z" fill="currentColor"/><path d="M4.51 24.203l-.31-.301A13.803 13.803 0 01.134 15.84l-.046-.33.312-.116c.653-.247 1.962-.681 3.393-.809 1.867-.171 4.691-.432 7.062-2.834l.282-.284 2.717 2.47L4.51 24.203zm-3.5-8.143a12.953 12.953 0 003.47 6.938l8.195-9.006-1.514-1.376c-2.518 2.36-5.377 2.623-7.294 2.799-1.132.103-2.188.412-2.857.645z" fill="currentColor"/><path d="M13.84 13.95l-2.714-2.469.257-.308c2.171-2.593 2.162-5.43 2.155-7.303-.007-1.496.319-2.866.514-3.55l.09-.315.327.012a13.772 13.772 0 018.471 3.292l.33.277-9.43 10.364zm-1.567-2.554l1.512 1.376 8.282-9.103A12.965 12.965 0 0014.768.867c-.179.699-.402 1.812-.396 3 .006 1.924.015 4.795-2.099 7.529z" fill="currentColor"/><path d="M16.543 16.409l-2.717-2.471 9.43-10.363.309.296a13.78 13.78 0 014.154 8.095l.046.325-.305.121c-.678.27-2.043.741-3.57.878-1.867.17-4.688.426-7.065 2.835l-.282.284zm-1.538-2.526l1.513 1.377c2.524-2.365 5.381-2.627 7.297-2.8 1.238-.111 2.387-.472 3.028-.705a12.94 12.94 0 00-3.55-6.981l-8.288 9.109z" fill="currentColor"/><path d="M13.529 27.863l.141-.531c.172-.643.46-1.932.454-3.328-.007-1.984-.016-4.702 2.136-7.287l.278-.336 7.662 6.972-.301.309c-2.594 2.663-6.083 4.154-9.821 4.197l-.549.004zm3.102-10.272c-1.686 2.256-1.678 4.646-1.672 6.412a13.567 13.567 0 01-.349 3.003 12.975 12.975 0 008.386-3.624l-6.365-5.791zM.087 15.523l-.041-.548a13.856 13.856 0 013.26-10.052l.28-.328 7.567 6.883-.307.311c-2.373 2.39-5.078 2.635-7.054 2.815-1.283.115-2.442.462-3.188.731l-.517.188zm3.581-9.726a13 13 0 00-2.82 8.575 13.665 13.665 0 012.869-.601c1.759-.159 4.136-.374 6.222-2.27L3.668 5.797z" fill="currentColor"/><path d="M24.188 23.365l-7.661-6.97.308-.309c2.374-2.388 5.079-2.633 7.054-2.813 1.438-.132 2.723-.556 3.36-.797l.52-.198.044.556c.295 3.751-.892 7.376-3.345 10.209l-.28.322zm-6.447-6.992l6.371 5.795a12.98 12.98 0 002.9-8.724 13.83 13.83 0 01-3.048.66c-1.758.161-4.135.375-6.223 2.269zM11.14 11.494L3.573 4.61l.296-.309C6.427 1.626 9.882.106 13.598.013L14.154 0l-.143.537c-.211.788-.46 2.004-.456 3.334.009 1.984.019 4.702-2.137 7.289l-.278.334zM4.772 4.572l6.276 5.712c1.69-2.256 1.681-4.644 1.674-6.409a13.685 13.685 0 01.347-3.004 12.994 12.994 0 00-8.297 3.701z" fill="currentColor"/></svg>
