<svg xmlns="http://www.w3.org/2000/svg" width="793.701" height="1122.52" viewBox="0 0 595.276 841.89"><defs><clipPath id="a"><path d="M101 69.2h392V290H101zm0 0"/></clipPath><clipPath id="b"><path d="M103 305h389v467.691H103zm0 0"/></clipPath><clipPath id="c"><path d="M508 297h87.277v269H508zm0 0"/></clipPath></defs><path d="M43.527 297.082c-12.093 0-22.39 4.223-30.828 12.66C4.223 318.22 0 328.367 0 340.192v181.804c0 12.137 4.223 22.395 12.7 30.867 8.437 8.438 18.734 12.66 30.827 12.66 12.125 0 22.352-4.222 30.672-12.66 8.293-8.472 12.465-18.73 12.465-30.867V340.191c0-11.824-4.21-21.972-12.687-30.449-8.446-8.437-18.598-12.66-30.45-12.66" fill="currentColor"/><g clip-path="url(#a)"><path d="M398.258 214.406c-3.125 3.27-6.918 4.903-11.406 4.903-4.524 0-8.395-1.633-11.63-4.903-3.269-3.234-4.863-7.078-4.863-11.59 0-4.527 1.594-8.41 4.864-11.64 3.234-3.23 7.105-4.863 11.629-4.863 4.488 0 8.28 1.632 11.406 4.863 3.074 3.23 4.633 7.113 4.633 11.64 0 4.485-1.559 8.356-4.633 11.59m-178.207 0c-3.23 3.27-7.102 4.903-11.63 4.903-4.523 0-8.327-1.633-11.405-4.903-3.114-3.234-4.63-7.078-4.63-11.59 0-4.527 1.516-8.41 4.63-11.64 3.078-3.23 6.922-4.863 11.406-4.863 4.527 0 8.398 1.632 11.629 4.863 3.23 3.23 4.867 7.113 4.867 11.64 0 4.485-1.637 8.356-4.867 11.59m173.566-80.508l29.992-55.39c1.973-3.688 1.293-6.5-2.093-8.477-3.68-1.672-6.5-.836-8.477 2.551l-30.41 55.8c-26.797-11.823-55.117-17.75-84.992-17.75-29.875 0-58.2 5.927-84.961 17.75l-30.442-55.8c-1.984-3.387-4.797-4.223-8.484-2.55-3.375 2.015-4.059 4.788-2.082 8.476l30.031 55.39c-30.449 15.5-54.71 37.133-72.722 64.887-18.063 27.785-27.063 58.117-27.063 91.113h391.027c0-32.996-9.011-63.328-27.062-91.113-18.02-27.754-42.117-49.387-72.262-64.887" fill="currentColor"/></g><g clip-path="url(#b)"><path d="M103.59 586.66c0 13 4.476 23.988 13.523 33 9.012 9 20 13.528 32.961 13.528h31.285l.418 95.976c0 12.098 4.254 22.39 12.692 30.867 8.476 8.446 18.625 12.66 30.449 12.66 12.125 0 22.39-4.214 30.867-12.66 8.438-8.476 12.66-18.77 12.66-30.867v-95.976h58.348v95.976c0 12.098 4.223 22.39 12.7 30.867 8.437 8.446 18.73 12.66 30.866 12.66 12.086 0 22.383-4.214 30.829-12.66 8.476-8.476 12.687-18.77 12.687-30.867v-95.976h31.707c12.7 0 23.527-4.528 32.578-13.528 9.004-9.012 13.488-20 13.488-32.96V305.097H103.59zm0 0" fill="currentColor"/></g><g clip-path="url(#c)"><path d="M551.71 297.082c-11.823 0-21.964 4.145-30.41 12.465-8.476 8.328-12.69 18.558-12.69 30.644v181.805c0 12.137 4.214 22.395 12.69 30.867 8.446 8.438 18.587 12.66 30.41 12.66 12.126 0 22.43-4.222 30.868-12.66 8.473-8.472 12.7-18.73 12.7-30.867V340.191c0-12.086-4.227-22.316-12.7-30.644-8.437-8.32-18.742-12.465-30.867-12.465" fill="currentColor"/></g></svg>