<svg xmlns="http://www.w3.org/2000/svg" viewBox="0 0 1000 1000"><path fill="currentColor" d="M894.2 9.4c25.6 0 47.9 8.5 67.1 25.5 19.2 17 28.7 38.2 28.7 63.8 0 23-8.2 50.5-24.6 82.7-121.2 229.6-206 366.8-254.6 411.7-35.4 33.2-75.2 49.8-119.4 49.8-46 0-85.5-16.9-118.5-50.6s-49.5-73.8-49.5-120.2c0-46.7 16.8-85.4 50.4-116.1L823 39c21.5-19.7 45.3-29.6 71.2-29.6zM396.5 575.6c14.2 27.8 33.7 51.5 58.3 71.2 24.6 19.7 52.1 33.6 82.4 41.6l.6 38.9c1.5 77.7-22.2 141.1-70.9 190-48.7 48.9-112.3 73.4-190.8 73.4-44.9 0-84.7-8.5-119.4-25.5s-62.5-40.3-83.5-69.8c-21-29.6-36.8-62.9-47.4-100.2C15.3 757.9 10 717.8 10 674.7c2.5 1.8 10 7.3 22.5 16.4 12.4 9.1 23.7 17.3 34 24.4 10.2 7.1 21 13.8 32.3 20 11.3 6.2 19.7 9.3 25.2 9.3 15 0 25-6.8 30.1-20.3 9.1-24.1 19.6-44.6 31.5-61.6 11.8-17 24.5-30.9 38.1-41.6 13.5-10.8 29.6-19.4 48.2-26 18.6-6.6 37.4-11.2 56.4-13.9 18.8-2.8 41.6-4.7 68.2-5.8z"/></svg>