<svg xmlns="http://www.w3.org/2000/svg" viewBox="0 0 1000 1000"><path fill="currentColor" d="M10 390V175.5c0-17.9 6.5-33.3 19.4-46.2s28.4-19.7 46.2-20.3H291c17.9 0 37.9 4.6 60.1 13.9 22.2 9.2 39.8 20.3 52.7 33.3L772.7 525c12.3 12.9 18.5 28.4 18.5 46.2 0 18.5-6.2 34.2-18.5 47.1L519.4 871.7c-13.6 12.9-29.3 19.4-47.1 19.4-18.5 0-33.9-6.5-46.2-19.4L57.2 502.8c-12.9-12.9-24-30.5-33.3-52.7C14.6 427.9 10 407.9 10 390zm98.9-115.6c0 18.5 6.5 33.9 19.4 46.2 12.9 12.3 28.7 18.8 47.2 19.4 18.5.6 33.9-5.9 46.2-19.4 12.3-13.6 18.8-29 19.4-46.2.6-17.3-5.9-33-19.4-47.2-13.6-14.2-29-20.3-46.2-18.5-17.3 1.8-33 8-47.2 18.5-14.1 10.5-20.6 26.3-19.4 47.2zm264.4-165.5h115.6c17.9 0 37.9 4.6 60.1 13.9 22.2 9.2 39.8 20.3 52.7 33.3L970.6 525c12.9 12.9 19.4 28.4 19.4 46.2 0 18.5-6.5 34.2-19.4 47.1L717.3 871.7c-13.6 12.9-29.3 19.4-47.2 19.4-12.3 0-22.5-2.5-30.5-7.4s-16.9-12.6-26.8-23.1L855 618.3c12.9-12.9 19.4-28.7 19.4-47.1 0-17.9-6.5-33.3-19.4-46.2L486.1 156.1c-12.9-12.9-30.5-24-52.7-33.3-22.2-9.3-42.2-13.9-60.1-13.9z"/></svg>
