<svg xmlns="http://www.w3.org/2000/svg" width="48" height="40"><path d="M20.962 10.388a10.719 10.719 0 00-10.577 10.986 8.225 8.225 0 008.28 8.244h1.442a5.73 5.73 0 005.716-5.745 3.407 3.407 0 00-3.442-3.416 2.325 2.325 0 00-1.66.744l-.617.66a1.621 1.621 0 01-2.154.226 1.594 1.594 0 01-.2-2.341l.4-.438a5.879 5.879 0 014.328-1.9 6.4 6.4 0 016.384 6.416 8.829 8.829 0 01-8.806 8.851h-1.378A11.415 11.415 0 017.292 21.232a13.865 13.865 0 0113.829-13.9H40.71A7.31 7.31 0 0048 0H21.2A21.255 21.255 0 000 21.309 18.644 18.644 0 0018.6 40h1.548a15.744 15.744 0 0015.7-15.784v-.807a13.139 13.139 0 00-1.593-6.31h1.9a6.7 6.7 0 006.683-6.718z" fill="#fff" fill-rule="evenodd"/></svg>
