<svg xmlns="http://www.w3.org/2000/svg" viewBox="0 0 1000 1000"><path fill="currentColor" d="M384.7 106.1c0-10.4-3.8-19.4-11.4-27-7.6-7.6-16.6-11.4-27-11.4-10.4 0-19.4 3.8-27 11.4-7.6 7.6-11.4 16.6-11.4 27s3.8 19.4 11.4 27 16.6 11.4 27 11.4c10.4 0 19.4-3.8 27-11.4s11.4-16.6 11.4-27zm538.1-19.2V279c0 6.4-2.4 11.4-7.2 15-3.2 2.8-7.2 4.2-12 4.2-1.6 0-3-.2-4.2-.6l-269-57.6c-4.4-.8-8-3-10.8-6.6-2.8-3.6-4.2-7.6-4.2-12H461.6v61.3c44.4 9.2 81.2 31.4 110.2 66.7 29 35.2 43.5 75.9 43.5 121.9v480.4c0 10.4-3.8 19.4-11.4 27-7.6 7.6-16.6 11.4-27 11.4H269.4c-10.4 0-19.4-3.8-27-11.4-7.6-7.6-11.4-16.6-11.4-27V471.2c0-42.4 12.5-80.6 37.5-114.4 25-33.8 57.3-56.7 97-68.8v-66.7h-19.2c-23.6 0-46.6 4.7-69.1 14.1-22.4 9.4-40.7 20-54.9 31.8s-27.4 25.1-39.6 39.9c-12.2 14.8-20.3 25.5-24.3 32.1-4 6.6-6.8 11.5-8.4 14.7-6.8 14-18.2 21-34.2 21-6.4 0-12.2-1.4-17.4-4.2-9.2-4.8-15.5-12.2-18.9-22.2-3.4-10-2.7-19.8 2.1-29.4 2-4 4.9-9.2 8.7-15.6 3.8-6.4 11.3-17.1 22.5-32.1s23.3-29 36.3-42c13-13 30-26.4 51-40.2 21-13.8 42.7-24.3 65.2-31.5-10-16.8-15-34-15-51.6 0-26.4 9.4-49 28.2-67.9C297.2 19.4 319.9 10 346.3 10s49 9.4 67.9 28.2c18.8 18.8 28.2 41.4 28.2 67.9 0 13.2-2.8 26-8.4 38.4h181.3c0-4.4 1.4-8.4 4.2-12 2.8-3.6 6.4-5.8 10.8-6.6l269-57.6c1.2-.4 2.6-.6 4.2-.6 4.8 0 8.8 1.4 12 4.2 4.8 3.6 7.3 8.6 7.3 15z"/></svg>