<svg xmlns="http://www.w3.org/2000/svg" viewBox="0 0 512 512"><path fill="currentColor" d="M437.02 74.98C388.667 26.629 324.38 0 256 0S123.333 26.629 74.98 74.98C26.629 123.333 0 187.62 0 256s26.629 132.667 74.98 181.02C123.333 485.371 187.62 512 256 512s132.667-26.629 181.02-74.98C485.371 388.667 512 324.38 512 256s-26.629-132.667-74.98-181.02zM271 90.92l64.146-46.605c38.687 14.512 72.369 39.336 97.683 71.115l-24.464 75.292-72.659 23.608L271 167.318V90.92zm-94.146-46.605L241 90.92v76.398l-64.706 47.012-72.659-23.608-24.464-75.292c25.314-31.779 58.996-56.603 97.683-71.115zM67.638 380.736c-22.065-33.209-35.586-72.554-37.411-114.885l64.137-46.598 72.659 23.608 24.716 76.066-44.906 61.809H67.638zm248.75 93.059C297.158 479.134 276.908 482 256 482s-41.158-2.866-60.389-8.205l-24.507-75.425 44.906-61.808h79.979l44.906 61.808-24.507 75.425zm48.779-93.058l-44.906-61.809 24.716-76.066 72.659-23.608 64.137 46.598c-1.825 42.331-15.346 81.676-37.411 114.885h-79.195z"/></svg>
